<svg width="1280" height="871" viewBox="0 0 1280 871" fill="none" xmlns="http://www.w3.org/2000/svg">
<g style="mix-blend-mode:multiply">
<path d="M265.656 629.919C636.79 866.422 1362.82 103.603 1478 177" stroke="#B7FFDC" stroke-width="2"/>
</g>
<g style="mix-blend-mode:multiply">
<path d="M265.934 630.114C812.709 978.544 1538.79 393.834 1708.48 501.967" stroke="#0AE7F5" stroke-width="3"/>
</g>
<path d="M259.753 626.156C-114.239 387.832 -720.009 959.029 -836.076 885.067" stroke="#C7D2D6" stroke-width="2"/>
<path d="M259.754 626.158C-354.306 234.851 -925.975 508.991 -1116.55 387.551" stroke="#81949C" stroke-width="2"/>
<path d="M259.756 626.159C-150.445 364.761 -590.851 639.729 -718.155 558.606" stroke="#E1E7EA" stroke-width="2"/>
<path d="M259.755 626.159C-159.974 358.689 -458.724 401.694 -588.985 318.686" stroke="#E1E7EA" stroke-width="2"/>
<path d="M259.754 626.157C-147.111 366.884 -369.612 303.285 -495.881 222.821" stroke="#C7D2D6" stroke-width="2"/>
<path d="M259.756 626.157C-110.193 390.409 -164.334 100.064 -279.146 26.901" stroke="#C7D2D6" stroke-width="2"/>
<path d="M259.754 626.156C-168.691 353.132 -309.951 140.155 -442.917 55.4234" stroke="#67777E" stroke-width="2"/>
<path d="M259.754 626.159C-153.781 362.636 -99.0844 -142.723 -227.423 -224.506" stroke="#C7D2D6" stroke-width="2"/>
<path d="M259.754 626.159C-97.8477 398.279 -54.02 -33.2786 -165 -104" stroke="#C7D2D6" stroke-width="2"/>
<path d="M259.754 626.159C-147.111 366.886 -186.505 15.946 -312.773 -64.5181" stroke="#A5B4BB" stroke-width="2"/>
<g style="mix-blend-mode:multiply">
<path d="M265.657 629.92C799.252 969.95 1463.37 469.105 1628.97 574.631" stroke="#0A74F5" stroke-width="2"/>
</g>
<g style="mix-blend-mode:multiply">
<path d="M265.657 629.92C799.252 969.95 1333.44 673 1499.04 778.526" stroke="#9FCBFF" stroke-width="2"/>
</g>
<g style="mix-blend-mode:multiply">
<path d="M265.657 629.92C799.252 969.95 1561.62 314.92 1727.22 420.447" stroke="#0A13F5" stroke-width="2"/>
</g>
<g style="mix-blend-mode:multiply">
<path d="M265.657 629.92C799.252 969.95 1279.75 757.254 1445.35 862.78" stroke="#0A74F5" stroke-width="2"/>
</g>
<g style="mix-blend-mode:multiply">
<path d="M265.658 629.92C631.501 863.051 968.685 968.597 1260.39 1022.35" stroke="#FFDDAA" stroke-width="2"/>
</g>
<g style="mix-blend-mode:multiply">
<path d="M265.657 629.92C810.21 976.933 1580.3 320.901 1749.3 428.594" stroke="#0A74F5"/>
</g>
<g style="mix-blend-mode:multiply">
<path d="M265.657 629.92C810.21 976.933 1803.12 -28.7535 1972.12 78.9402" stroke="#B7FFDC" stroke-width="6"/>
</g>
<g style="mix-blend-mode:multiply">
<path d="M265.657 629.918C589.06 836.005 652.032 1259.01 658.481 1647.96" stroke="#D3E0FF" stroke-width="2"/>
</g>
<g style="mix-blend-mode:multiply">
<path d="M265.655 629.917C592.593 838.256 662.517 1256.05 675.333 1639.37" stroke="#A6EAFF" stroke-width="2"/>
</g>
<g style="mix-blend-mode:multiply">
<path d="M265.659 629.92C626.864 860.095 978.156 935.149 1288.25 953.117" stroke="#0A74F5" stroke-width="2"/>
</g>
<g style="mix-blend-mode:multiply">
<path d="M265.659 629.919C923.123 1048.89 1493.32 821.086 1697.36 951.11" stroke="#FFD6BE" stroke-width="5"/>
</g>
<g style="mix-blend-mode:multiply">
<path d="M265.659 629.92C879.77 1021.26 1019.84 1424.46 1210.43 1545.91" stroke="#FFD6BE" stroke-width="2"/>
</g>
<g style="mix-blend-mode:multiply">
<path d="M259.755 626.159C853.379 1004.44 1400.67 747.828 1584.9 865.227" stroke="#0A74F5" stroke-width="2"/>
</g>
<g style="mix-blend-mode:multiply">
<path d="M265.658 629.92C959.808 1072.26 1539.89 866.164 1755.32 1003.44" stroke="#FFDCFB" stroke-width="2"/>
</g>
<g style="mix-blend-mode:multiply">
<path d="M265.658 629.918C625.225 859.051 849.028 1163.44 998.73 1478.37" stroke="#FFAAAA" stroke-width="4.37449"/>
</g>
<g style="mix-blend-mode:multiply">
<path d="M265.659 629.92C826.348 987.217 1172.07 1079.08 1348.33 1120.85" stroke="#0AE7F5" stroke-width="3"/>
</g>
<g style="mix-blend-mode:multiply">
<path d="M265.658 629.92C904.542 1037.05 1121.51 1344.71 1319.78 1471.06" stroke="#0AE7F5" stroke-width="2"/>
</g>
<g style="mix-blend-mode:multiply">
<path d="M265.658 629.92C904.542 1037.05 1169.29 1269.73 1367.56 1396.08" stroke="#D6FDFF" stroke-width="2"/>
</g>
<g style="mix-blend-mode:multiply">
<path d="M265.658 629.92C904.542 1037.05 1130.63 1330.39 1328.91 1456.74" stroke="#1CB5BF" stroke-width="5"/>
</g>
<path d="M259.754 626.157C-147.111 366.884 -410.953 368.161 -537.222 287.697" stroke="#151819" stroke-width="2"/>
<path d="M259.754 626.159C-153.781 362.636 -567.802 592.815 -696.141 511.031" stroke="#151819" stroke-width="2"/>
<rect width="26" height="25.9758" rx="12.9879" transform="matrix(0.856967 0.515371 -0.51533 0.856992 260.503 610.979)" fill="#151819"/>
</svg>
