<svg width="24" height="24" viewBox="0 0 24 24" fill="none" xmlns="http://www.w3.org/2000/svg">
<rect width="24" height="24" rx="12" fill="#2C3A4B"/>
<path fill-rule="evenodd" clip-rule="evenodd" d="M17.9126 13.9634C17.6294 14.1288 17.2958 14.1493 17.0423 14.0172C16.7203 13.8493 16.5433 13.456 16.5433 12.909V11.2726C16.5433 10.4823 16.205 9.92 15.6394 9.76817C14.6808 9.51024 13.9599 10.5935 13.689 11.0004L11.9984 13.5321V10.4377C11.9794 9.72573 11.7291 9.29988 11.2538 9.17146C10.9393 9.08659 10.4687 9.12061 10.0116 9.76671L6.22409 15.384C5.71704 14.4949 5.45271 13.5049 5.45408 12.5C5.45408 9.11622 8.38996 6.36354 11.9984 6.36354C15.6069 6.36354 18.5424 9.11622 18.5424 12.5C18.5424 12.5059 18.544 12.511 18.5444 12.5165C18.5444 12.5223 18.5432 12.5274 18.5436 12.5333C18.5776 13.1885 18.3479 13.7095 17.9126 13.9634ZM19.9964 12.5004V12.4832L19.9961 12.4663C19.9759 8.34537 16.3963 5 11.998 5C7.58826 5 4 8.36439 4 12.5C4 16.6352 7.58826 20 11.9984 20C14.0221 20 15.9535 19.2895 17.4361 17.9999C17.7308 17.7438 17.7482 17.3124 17.4749 17.0366C17.4106 16.9711 17.3327 16.9181 17.2459 16.8807C17.1591 16.8433 17.0652 16.8223 16.9695 16.8189C16.8738 16.8155 16.7783 16.8297 16.6887 16.8608C16.599 16.8919 16.517 16.9392 16.4474 17C15.2457 18.0511 13.6535 18.6367 11.9984 18.6365C10.0663 18.6365 8.32778 17.8466 7.12878 16.5939L10.5443 11.5283V13.8635C10.5443 14.9852 11.0153 15.3478 11.4102 15.4539C11.8055 15.56 12.4096 15.4876 13.0437 14.5363L14.9224 11.7233C14.9826 11.6326 15.0381 11.5543 15.0888 11.4866V12.909C15.0888 13.9576 15.5435 14.7961 16.3361 15.2091C17.0507 15.5816 17.949 15.5479 18.681 15.1213C19.5683 14.6037 20.0464 13.6499 19.9964 12.5004Z" fill="white"/>
</svg>
