<svg width="62" height="61" viewBox="0 0 62 61" fill="none" xmlns="http://www.w3.org/2000/svg">
<path d="M41.9807 20.3609C45.5751 25.6783 47.3502 31.6762 46.6866 38.5811C46.6838 38.6103 46.6687 38.6372 46.6449 38.6548C43.9229 40.6658 41.2857 41.8863 38.6856 42.6957C38.6653 42.7018 38.6436 42.7015 38.6236 42.6947C38.6036 42.6879 38.5861 42.6749 38.5738 42.6576C37.9731 41.8166 37.4272 40.93 36.9491 39.9989C36.9216 39.9441 36.9467 39.878 37.0032 39.8564C37.87 39.5278 38.6943 39.1339 39.4872 38.6676C39.5496 38.6307 39.5536 38.5407 39.4959 38.4974C39.3276 38.3718 39.161 38.2397 39.0014 38.1076C38.9716 38.0832 38.9314 38.0784 38.8976 38.0948C33.7501 40.4865 28.1114 40.4865 22.903 38.0948C22.8692 38.0796 22.829 38.0848 22.8 38.1088C22.6409 38.2409 22.4738 38.3718 22.3071 38.4974C22.2494 38.5407 22.2542 38.6307 22.317 38.6676C23.1099 39.1251 23.9342 39.5278 24.7999 39.858C24.856 39.8796 24.8826 39.9441 24.8548 39.9989C24.3869 40.9312 23.8411 41.8178 23.2292 42.6588C23.2026 42.6929 23.1588 42.7085 23.1175 42.6957C20.5296 41.8863 17.8924 40.6658 15.1705 38.6548C15.1478 38.6372 15.1315 38.6091 15.1291 38.5799C14.5746 32.6072 15.7048 26.5597 19.8306 20.3597C19.8406 20.3433 19.8557 20.3304 19.8732 20.3228C21.9033 19.3854 24.0782 18.6957 26.3514 18.3018C26.3928 18.2954 26.4341 18.3146 26.4556 18.3514C26.7365 18.8518 27.0575 19.4935 27.2747 20.0178C29.6708 19.6496 32.1043 19.6496 34.5506 20.0178C34.7678 19.5047 35.0777 18.8518 35.3574 18.3514C35.3673 18.3332 35.3828 18.3185 35.4015 18.3096C35.4202 18.3007 35.4412 18.298 35.4616 18.3018C37.736 18.6969 39.9109 19.3866 41.9394 20.3228C41.9573 20.3304 41.972 20.3433 41.9807 20.3609V20.3609ZM28.4929 31.717C28.5179 29.9513 27.2385 28.4903 25.6325 28.4903C24.0396 28.4903 22.7725 29.9385 22.7725 31.717C22.7725 33.4951 24.0647 34.9433 25.6325 34.9433C27.2258 34.9433 28.4929 33.4951 28.4929 31.717V31.717ZM39.0679 31.717C39.0929 29.9513 37.8135 28.4903 36.2079 28.4903C34.6146 28.4903 33.3475 29.9385 33.3475 31.717C33.3475 33.4951 34.6397 34.9433 36.2079 34.9433C37.8135 34.9433 39.0679 33.4951 39.0679 31.717V31.717Z" fill="white"/>
</svg>
