<svg width="24" height="24" viewBox="0 0 24 24" fill="none" xmlns="http://www.w3.org/2000/svg">
<rect width="24" height="24" rx="12" fill="#2C3A4B"/>
<path d="M17.0671 6.92842C16.1585 6.49869 15.1843 6.18209 14.1656 6.00076C14.1471 5.99726 14.1285 6.00601 14.119 6.0235C13.9937 6.25322 13.8549 6.55292 13.7577 6.78847C12.6621 6.61939 11.572 6.61939 10.4989 6.78847C10.4017 6.54768 10.2578 6.25322 10.132 6.0235C10.1224 6.00659 10.1039 5.99784 10.0853 6.00076C9.06724 6.18151 8.09298 6.49811 7.18388 6.92842C7.17601 6.93192 7.16926 6.93775 7.16478 6.94533C5.3168 9.79127 4.81056 12.5673 5.05891 15.3088C5.06003 15.3222 5.06733 15.3351 5.07745 15.3432C6.29669 16.2662 7.47774 16.8266 8.63686 17.198C8.65541 17.2038 8.67506 17.1968 8.68687 17.1811C8.96106 16.7951 9.20547 16.3881 9.41503 15.9601C9.4274 15.935 9.4156 15.9053 9.39032 15.8954C9.00264 15.7438 8.63348 15.559 8.27838 15.3491C8.2503 15.3322 8.24805 15.2907 8.27389 15.2709C8.34861 15.2132 8.42336 15.1531 8.49471 15.0925C8.50762 15.0814 8.52561 15.0791 8.54079 15.0861C10.8736 16.184 13.3992 16.184 15.7045 15.0861C15.7197 15.0785 15.7377 15.0809 15.7512 15.0919C15.8226 15.1526 15.8973 15.2132 15.9726 15.2709C15.9984 15.2907 15.9967 15.3322 15.9686 15.3491C15.6135 15.563 15.2444 15.7438 14.8561 15.8948C14.8309 15.9047 14.8196 15.935 14.832 15.9601C15.046 16.3875 15.2905 16.7945 15.5596 17.1805C15.5708 17.1968 15.591 17.2038 15.6096 17.198C16.7743 16.8266 17.9554 16.2662 19.1746 15.3432C19.1853 15.3351 19.192 15.3228 19.1932 15.3094C19.4904 12.1399 18.6953 9.38663 17.0856 6.94591C17.0817 6.93775 17.0749 6.93192 17.0671 6.92842ZM9.76341 13.6395C9.06106 13.6395 8.48235 12.9748 8.48235 12.1585C8.48235 11.3422 9.04984 10.6775 9.76341 10.6775C10.4826 10.6775 11.0557 11.3481 11.0444 12.1585C11.0444 12.9748 10.477 13.6395 9.76341 13.6395ZM14.4999 13.6395C13.7976 13.6395 13.2189 12.9748 13.2189 12.1585C13.2189 11.3422 13.7863 10.6775 14.4999 10.6775C15.2191 10.6775 15.7922 11.3481 15.781 12.1585C15.781 12.9748 15.2191 13.6395 14.4999 13.6395Z" fill="white"/>
</svg>
