<svg width="24" height="24" viewBox="0 0 24 24" fill="none" xmlns="http://www.w3.org/2000/svg">
<g clip-path="url(#clip0_1_2324)">
<path fill-rule="evenodd" clip-rule="evenodd" d="M11.9958 0.599976C9.16475 0.601444 6.42656 1.60414 4.27081 3.42876C2.11507 5.25339 0.682345 7.78096 0.22883 10.5595C-0.224685 13.3381 0.330574 16.1865 1.79533 18.5953C3.26009 21.0042 5.53883 22.8164 8.22408 23.7081C8.8165 23.818 9.03964 23.4508 9.03964 23.1387C9.03964 22.8265 9.02779 21.9213 9.02384 20.9317C5.70634 21.6484 5.00532 19.5318 5.00532 19.5318C4.46425 18.1573 3.68227 17.7961 3.68227 17.7961C2.60013 17.0617 3.76324 17.0755 3.76324 17.0755C4.96188 17.1599 5.59182 18.2987 5.59182 18.2987C6.65421 20.111 8.38206 19.5867 9.06136 19.2804C9.16799 18.5127 9.47802 17.9904 9.81965 17.694C7.1696 17.3955 4.38526 16.3784 4.38526 11.835C4.36884 10.6566 4.80859 9.51712 5.61353 8.65217C5.4911 8.35372 5.08233 7.14815 5.73003 5.51062C5.73003 5.51062 6.73122 5.19254 9.01003 6.72601C10.9646 6.19452 13.0269 6.19452 14.9815 6.72601C17.2584 5.19254 18.2575 5.51062 18.2575 5.51062C18.9072 7.14422 18.4985 8.3498 18.376 8.65217C19.1835 9.51726 19.6242 10.6588 19.6063 11.8389C19.6063 16.3922 16.816 17.3955 14.162 17.6881C14.5886 18.0572 14.9697 18.7778 14.9697 19.8852C14.9697 21.4717 14.9559 22.7479 14.9559 23.1387C14.9559 23.4548 15.1711 23.8239 15.7753 23.7081C18.4609 22.8163 20.7399 21.0037 22.2046 18.5945C23.6693 16.1852 24.2243 13.3364 23.7703 10.5576C23.3163 7.77877 21.8828 5.25117 19.7264 3.42686C17.5699 1.60255 14.8311 0.600513 11.9997 0.599976H11.9958Z" fill="#2C3A4B"/>
<path d="M4.5864 17.6252C4.56073 17.6842 4.46594 17.7018 4.38893 17.6606C4.31192 17.6194 4.25465 17.5428 4.2823 17.4819C4.30995 17.421 4.40276 17.4053 4.47977 17.4466C4.55678 17.4878 4.61602 17.5663 4.5864 17.6252Z" fill="#2C3A4B"/>
<path d="M5.07024 18.1613C5.02935 18.1818 4.98256 18.1875 4.93789 18.1774C4.89322 18.1674 4.85345 18.1423 4.82538 18.1063C4.74837 18.0238 4.73256 17.9099 4.7918 17.8589C4.85104 17.8078 4.95769 17.8314 5.0347 17.9139C5.11171 17.9963 5.12948 18.1102 5.07024 18.1613Z" fill="#2C3A4B"/>
<path d="M5.54019 18.8425C5.46713 18.8936 5.34271 18.8425 5.2736 18.7404C5.25449 18.7221 5.23929 18.7002 5.22891 18.6759C5.21852 18.6516 5.21317 18.6255 5.21317 18.5991C5.21317 18.5727 5.21852 18.5465 5.22891 18.5223C5.23929 18.498 5.25449 18.476 5.2736 18.4577C5.34666 18.4086 5.47107 18.4577 5.54019 18.5578C5.6093 18.658 5.61128 18.7915 5.54019 18.8425Z" fill="#2C3A4B"/>
<path d="M6.17806 19.5023C6.11289 19.575 5.98059 19.5553 5.87198 19.4572C5.76337 19.359 5.73769 19.2255 5.80286 19.1548C5.86802 19.0841 6.00033 19.1037 6.11289 19.1999C6.22545 19.2961 6.24717 19.4316 6.17806 19.5023Z" fill="#2C3A4B"/>
<path d="M7.07255 19.8871C7.04293 19.9794 6.90865 20.0206 6.77437 19.9813C6.64009 19.9421 6.55123 19.8321 6.5769 19.7379C6.60257 19.6436 6.73882 19.6004 6.87508 19.6436C7.01133 19.6868 7.09822 19.7909 7.07255 19.8871Z" fill="#2C3A4B"/>
<path d="M8.04815 19.9539C8.04815 20.0501 7.93758 20.1326 7.7954 20.1345C7.65322 20.1365 7.53671 20.058 7.53671 19.9617C7.53671 19.8655 7.64729 19.7831 7.78947 19.7811C7.93165 19.7791 8.04815 19.8557 8.04815 19.9539Z" fill="#2C3A4B"/>
<path d="M8.9564 19.8027C8.97417 19.8989 8.87544 19.9991 8.73326 20.0226C8.59108 20.0462 8.46667 19.9893 8.4489 19.895C8.43113 19.8008 8.53381 19.6987 8.67204 19.6731C8.81027 19.6476 8.93863 19.7065 8.9564 19.8027Z" fill="#2C3A4B"/>
</g>
<defs>
<clipPath id="clip0_1_2324">
<rect width="24" height="24" rx="6" fill="white"/>
</clipPath>
</defs>
</svg>
