<svg width="413" height="50" viewBox="0 0 413 50" fill="none" xmlns="http://www.w3.org/2000/svg">
<g clip-path="url(#clip0_112_11811)">
<path d="M70.7022 25.0243L73.6093 21.6711H65.2028V25.0243H70.7022ZM75.572 11.2697H59.87V35.8101H75.572V32.1579H63.2956V14.9219H75.572V11.2697Z" fill="#FAFAFA"/>
</g>
<g clip-path="url(#clip1_112_11811)">
<path d="M246.225 25.0243L249.132 21.6711H240.726V25.0243H246.225ZM251.095 11.2697H235.393V35.8101H251.095V32.1579H238.819V14.9219H251.095V11.2697Z" fill="#FAFAFA"/>
</g>
<path d="M86.2861 10.292H90.5449L90.8998 10.4694L97.4654 18.987L104.031 10.4694L104.386 10.292H108.645L108.822 10.4694L99.7722 22.0036L109.887 34.9573L109.709 35.1348H105.451L105.096 34.9573L97.4654 25.0202L89.8351 34.9573L89.4802 35.1348H85.2214L85.044 34.9573L95.1585 22.0036L86.1087 10.4694L86.2861 10.292Z" fill="#FAFAFA"/>
<path d="M116.426 10.292H135.768L135.945 10.4694L121.927 31.5858H135.945L136.123 31.7987V34.9573L135.945 35.1348H115.361L115.184 34.9573L129.202 13.841H116.426L116.248 13.6635V10.4694L116.426 10.292Z" fill="#FAFAFA"/>
<path d="M155.61 9.75964C162.85 9.75964 168.741 15.58 168.741 22.7134C168.741 29.8468 162.85 35.6671 155.61 35.6671C148.37 35.6671 142.479 29.8468 142.479 22.7134C142.479 15.58 148.37 9.75964 155.61 9.75964ZM155.61 13.4861C150.606 13.4861 146.56 17.6029 146.56 22.7134C146.56 27.8239 150.606 31.9407 155.61 31.9407C160.614 31.9407 164.66 27.8239 164.66 22.7134C164.66 17.6029 160.614 13.4861 155.61 13.4861Z" fill="#FAFAFA"/>
<path d="M341.771 9.75964C349.01 9.75964 354.902 15.58 354.902 22.7134C354.902 29.8468 349.01 35.6671 341.771 35.6671C334.531 35.6671 328.639 29.8468 328.639 22.7134C328.639 15.58 334.531 9.75964 341.771 9.75964ZM341.771 13.4861C336.767 13.4861 332.721 17.6029 332.721 22.7134C332.721 27.8239 336.767 31.9407 341.771 31.9407C346.775 31.9407 350.82 27.8239 350.82 22.7134C350.82 17.6029 346.775 13.4861 341.771 13.4861Z" fill="#FAFAFA"/>
<path d="M392.464 10.292H395.658L395.836 10.4694V18.987L405.95 10.4694L406.305 10.292H410.919L411.096 10.4694L398.497 20.9389L412.516 34.9573L412.338 35.1348H407.725L407.37 34.9573L395.836 23.2457V34.9573L395.658 35.1348H392.464L392.287 34.9573V10.4694L392.464 10.292Z" fill="#FAFAFA"/>
<path d="M263.227 10.292H282.746L282.923 10.4694V13.6635L282.746 13.841H274.761V34.9573L274.583 35.1348H271.389L271.212 34.9573V13.841H263.227L263.049 13.6635V10.4694L263.227 10.292Z" fill="#FAFAFA"/>
<path d="M290.884 10.292H294.433L294.61 10.4694L300.289 29.279L305.79 10.8243L305.967 10.6469H309.516L309.693 10.8243L315.194 29.279L320.873 10.4694L321.05 10.292H324.599L324.777 10.4694L317.146 34.9573L316.969 35.1348H313.597L313.42 34.9573L307.742 16.6801L302.063 34.9573L301.886 35.1348H298.514L298.337 34.9573L290.706 10.4694L290.884 10.292Z" fill="#FAFAFA"/>
<path d="M216.825 31.2063L203.105 11.2698H199.931V35.8103H203.105V15.8952L216.825 35.8103H219.981V11.2698H216.825V31.2063Z" fill="#FAFAFA"/>
<path d="M379.528 24.5996C379.795 24.3572 380.024 24.0928 380.215 23.8505C381.266 22.4845 381.839 20.6557 381.839 18.7389C381.839 15.0153 379.604 11.2698 375.306 11.2698H363.043V36.5414H366.309V14.3984H375.306C377.942 14.3984 379.107 16.5797 379.107 18.7168C379.107 19.8626 378.763 20.9642 378.171 21.7353C377.541 22.5506 376.662 23.0132 375.554 23.0573H372.154H367.245V26.186H373.778L379.146 36.4973H382.546L377.063 25.9436C378.133 25.6572 378.935 25.1284 379.528 24.5555V24.5996Z" fill="#FAFAFA"/>
<g filter="url(#filter0_d_112_11811)">
<path opacity="0.1" fill-rule="evenodd" clip-rule="evenodd" d="M20.1483 35.9164C18.1341 35.9164 16.1852 35.6439 14.3346 35.1317C14.5527 37.4021 14.989 39.6544 15.6435 41.8594C22.4062 40.2356 28.5617 36.701 33.3501 31.6589L33.2483 31.5536C29.5979 34.2926 25.064 35.9164 20.1447 35.9164H20.1483Z" fill="black"/>
<path fill-rule="evenodd" clip-rule="evenodd" d="M31.8289 5.92847L21.554 0C18.5544 3.61811 16.3002 7.74115 14.864 12.1221C22.7684 13.7713 29.7529 17.9234 34.9449 23.7175C38.0245 27.154 40.4714 31.1644 42.1075 35.5672V11.8569H42.1039L31.8326 5.92847H31.8289Z" fill="url(#paint0_linear_112_11811)"/>
<path opacity="0.3" fill-rule="evenodd" clip-rule="evenodd" d="M18.4299 4.382C18.4519 4.34553 18.4776 4.30906 18.4995 4.27258L18.4299 4.382Z" fill="#A4A4A4"/>
<path fill-rule="evenodd" clip-rule="evenodd" d="M14.8526 35.2951C10.3369 36.2432 5.63572 36.3558 1 35.5676L11.2786 41.496L21.5572 47.4245L31.8321 41.496L42.1107 35.5676C40.4745 31.1612 38.0276 27.1507 34.948 23.7179C29.567 29.7335 22.4734 33.7004 14.8599 35.2951H14.8526Z" fill="url(#paint1_linear_112_11811)"/>
<path fill-rule="evenodd" clip-rule="evenodd" d="M1 11.8572V35.5711C5.63572 36.3593 10.3369 36.2431 14.8526 35.2986C12.3293 27.6338 12.4384 19.5148 14.8599 12.126C16.2997 7.74506 18.5503 3.62201 21.5499 0.00390625L11.2713 5.93237L1 11.8572Z" fill="url(#paint2_linear_112_11811)"/>
<path opacity="0.3" fill-rule="evenodd" clip-rule="evenodd" d="M6.54712 20.696C5.20185 25.7054 4.90371 30.9836 5.68906 36.1129C8.73591 36.2255 11.7719 35.964 14.7314 35.3428C12.2082 27.6779 12.3172 19.559 14.7387 12.1702C16.1785 7.78925 18.4291 3.6662 21.4287 0.0480957C13.8661 4.92673 8.77954 12.3773 6.54712 20.696Z" fill="url(#paint3_linear_112_11811)"/>
</g>
<defs>
<filter id="filter0_d_112_11811" x="0.0964215" y="0" width="42.9179" height="49.2316" filterUnits="userSpaceOnUse" color-interpolation-filters="sRGB">
<feFlood flood-opacity="0" result="BackgroundImageFix"/>
<feColorMatrix in="SourceAlpha" type="matrix" values="0 0 0 0 0 0 0 0 0 0 0 0 0 0 0 0 0 0 127 0" result="hardAlpha"/>
<feOffset dy="0.903579"/>
<feGaussianBlur stdDeviation="0.451789"/>
<feComposite in2="hardAlpha" operator="out"/>
<feColorMatrix type="matrix" values="0 0 0 0 0.308333 0 0 0 0 0.281354 0 0 0 0 0.281354 0 0 0 0.3 0"/>
<feBlend mode="normal" in2="BackgroundImageFix" result="effect1_dropShadow_112_11811"/>
<feBlend mode="normal" in="SourceGraphic" in2="effect1_dropShadow_112_11811" result="shape"/>
</filter>
<linearGradient id="paint0_linear_112_11811" x1="46.5324" y1="31.9164" x2="17.4666" y2="-0.232708" gradientUnits="userSpaceOnUse">
<stop stop-color="white"/>
<stop offset="1" stop-color="#D5D5D5"/>
</linearGradient>
<linearGradient id="paint1_linear_112_11811" x1="44.9503" y1="29.9915" x2="0.149935" y2="44.9855" gradientUnits="userSpaceOnUse">
<stop stop-color="#D4D4D4"/>
<stop offset="1" stop-color="#F9F9F9"/>
</linearGradient>
<linearGradient id="paint2_linear_112_11811" x1="1.92714" y1="40.2063" x2="16.7418" y2="-0.938065" gradientUnits="userSpaceOnUse">
<stop stop-color="white"/>
<stop offset="1" stop-color="#D4D4D4"/>
</linearGradient>
<linearGradient id="paint3_linear_112_11811" x1="13.3445" y1="0.0480957" x2="13.3445" y2="36.1384" gradientUnits="userSpaceOnUse">
<stop stop-color="#DFDFDF"/>
<stop offset="1" stop-color="#A4A4A4" stop-opacity="0.49"/>
</linearGradient>
<clipPath id="clip0_112_11811">
<rect width="15.702" height="24.5405" fill="white" transform="translate(59.8674 11.2698)"/>
</clipPath>
<clipPath id="clip1_112_11811">
<rect width="15.702" height="24.5405" fill="white" transform="translate(235.39 11.2698)"/>
</clipPath>
</defs>
</svg>
