<svg width="24" height="24" viewBox="0 0 24 24" fill="none" xmlns="http://www.w3.org/2000/svg">
<rect width="24" height="24" rx="12" fill="#2C3A4B"/>
<path d="M12.9905 12.0301C12.9905 14.2557 11.2017 16.06 8.99532 16.06C6.7889 16.06 5 14.2553 5 12.0301C5 9.8048 6.78876 8 8.99532 8C11.2019 8 12.9905 9.80439 12.9905 12.0301Z" fill="white"/>
<path d="M17.3734 12.0301C17.3734 14.1251 16.479 15.8241 15.3757 15.8241C14.2724 15.8241 13.3781 14.1251 13.3781 12.0301C13.3781 9.93509 14.2723 8.23608 15.3756 8.23608C16.4789 8.23608 17.3732 9.93454 17.3732 12.0301" fill="white"/>
<path d="M19.1661 12.03C19.1661 13.9066 18.8516 15.4289 18.4636 15.4289C18.0755 15.4289 17.7611 13.9071 17.7611 12.03C17.7611 10.153 18.0756 8.63123 18.4636 8.63123C18.8515 8.63123 19.1661 10.1529 19.1661 12.03Z" fill="white"/>
</svg>
