<svg width="62" height="61" viewBox="0 0 62 61" fill="none" xmlns="http://www.w3.org/2000/svg">
<path d="M30.9894 49.32C40.1934 49.32 47.6548 41.8586 47.6548 32.6546C47.6548 23.4506 40.1934 15.9892 30.9894 15.9892C21.7853 15.9892 14.324 23.4506 14.324 32.6546C14.324 41.8586 21.7853 49.32 30.9894 49.32Z" fill="white"/>
<path d="M21.4681 32.2896C21.4681 32.2896 29.7233 28.7776 32.5863 27.5409C33.6838 27.0463 37.4058 25.4633 37.4058 25.4633C37.4058 25.4633 39.1237 24.7708 38.9805 26.4526C38.9328 27.1452 38.551 29.569 38.1693 32.1907C37.5967 35.9006 36.9763 39.9568 36.9763 39.9568C36.9763 39.9568 36.8809 41.0945 36.0697 41.2924C35.2585 41.4902 33.9224 40.5999 33.6838 40.402C33.4929 40.2536 30.105 38.0276 28.8643 36.9394C28.5303 36.6426 28.1486 36.049 28.912 35.3565C30.6299 33.7241 32.6817 31.696 33.9224 30.4099C34.495 29.8163 35.0676 28.4313 32.6817 30.1131C29.2938 32.5369 25.9535 34.8124 25.9535 34.8124C25.9535 34.8124 25.19 35.307 23.7585 34.8618C22.3269 34.4167 20.6568 33.823 20.6568 33.823C20.6568 33.823 19.5116 33.0811 21.4681 32.2896Z" fill="#131313"/>
</svg>
