<svg width="62" height="61" viewBox="0 0 62 61" fill="none" xmlns="http://www.w3.org/2000/svg">
<path d="M46.2371 20.7498C45.2299 21.1832 44.171 21.4851 43.0867 21.6478C43.5936 21.5609 44.3396 20.6484 44.6365 20.279C45.0877 19.7218 45.4315 19.0858 45.6505 18.4032C45.6505 18.3525 45.7012 18.2801 45.6505 18.2439C45.6249 18.2299 45.5963 18.2226 45.5672 18.2226C45.5381 18.2226 45.5094 18.2299 45.4839 18.2439C44.3064 18.8815 43.0533 19.3682 41.7541 19.6924C41.7088 19.7062 41.6606 19.7074 41.6147 19.696C41.5687 19.6845 41.5268 19.6607 41.4933 19.6272C41.3922 19.5068 41.2833 19.3931 41.1674 19.2868C40.6375 18.812 40.0363 18.4234 39.3858 18.1352C38.5077 17.775 37.5592 17.619 36.612 17.679C35.6928 17.737 34.7955 17.9835 33.9757 18.4032C33.1685 18.8457 32.459 19.4468 31.8899 20.1704C31.2913 20.9151 30.8591 21.7795 30.6225 22.7052C30.4273 23.5858 30.4052 24.4959 30.5573 25.3849C30.5573 25.537 30.5573 25.5587 30.4269 25.537C25.2631 24.7765 21.0263 22.9442 17.5644 19.0116C17.4123 18.8378 17.3327 18.8378 17.2096 19.0116C15.7031 21.3002 16.4346 24.9214 18.3176 26.7103C18.5711 26.9493 18.8319 27.181 19.1071 27.3983C18.2437 27.337 17.4014 27.103 16.6302 26.7103C16.4853 26.6161 16.4056 26.6668 16.3984 26.8406C16.3779 27.0816 16.3779 27.3239 16.3984 27.5649C16.5495 28.7197 17.0046 29.8137 17.7172 30.735C18.4298 31.6563 19.3743 32.3718 20.4542 32.8084C20.7174 32.9211 20.9917 33.0061 21.2725 33.0618C20.4733 33.2192 19.6536 33.2437 18.8463 33.1343C18.6725 33.0981 18.6073 33.1922 18.6725 33.3588C19.7372 36.2557 22.0475 37.1393 23.7422 37.6318C23.974 37.668 24.2057 37.668 24.4664 37.726C24.4664 37.726 24.4664 37.726 24.423 37.7694C23.9233 38.682 21.9026 39.2976 20.9756 39.6162C19.2835 40.224 17.4795 40.4563 15.6886 40.297C15.4062 40.2536 15.341 40.2608 15.2686 40.297C15.1962 40.3332 15.2686 40.4129 15.3483 40.4853C15.7104 40.7243 16.0725 40.9343 16.4491 41.1371C17.5703 41.7486 18.7555 42.2344 19.9834 42.5856C26.3422 44.3383 33.4977 43.0491 38.2705 38.3053C42.022 34.5827 43.3402 29.4479 43.3402 24.3058C43.3402 24.1102 43.5792 23.9944 43.7168 23.893C44.6659 23.1534 45.5027 22.2801 46.2009 21.3002C46.3218 21.1541 46.3838 20.9681 46.3747 20.7787V20.7787C46.3747 20.6701 46.3747 20.6918 46.2371 20.7498Z" fill="white"/>
</svg>
