<svg width="32" height="32" viewBox="0 0 32 32" fill="none" xmlns="http://www.w3.org/2000/svg">
<path fill-rule="evenodd" clip-rule="evenodd" d="M15.641 0.641052C24.2793 0.641052 31.2821 7.64378 31.2821 16.2821C31.2821 24.9204 24.2793 31.9231 15.641 31.9231C7.00273 31.9231 0 24.9204 0 16.2821C0 7.64378 7.00273 0.641052 15.641 0.641052ZM15.6438 28.7949C15.6538 28.7947 15.6898 28.7918 15.7646 28.7577C15.8589 28.7148 16.0212 28.6186 16.2383 28.4146C16.6892 27.9907 17.237 27.2322 17.7653 26.0582C18.6782 24.0296 19.3501 21.1654 19.5131 17.8462H11.7689C11.932 21.1654 12.6039 24.0296 13.5168 26.0582C14.045 27.2322 14.5929 27.9907 15.0438 28.4146C15.2608 28.6186 15.4232 28.7148 15.5174 28.7577C15.5951 28.793 15.6309 28.7949 15.6393 28.7949H15.6438ZM10.9142 27.8713C9.65742 25.3384 8.81441 21.81 8.63732 17.8462H3.22501C3.79296 22.4007 6.80869 26.1951 10.9142 27.8713ZM3.22501 14.718H8.63732C8.81441 10.7542 9.65742 7.22572 10.9142 4.69284C6.80869 6.36905 3.79296 10.1634 3.22501 14.718ZM20.3678 27.8713C24.4734 26.1951 27.4891 22.4007 28.057 17.8462H22.6447C22.4676 21.81 21.6246 25.3384 20.3678 27.8713ZM28.057 14.718C27.4891 10.1634 24.4734 6.36905 20.3678 4.69284C21.6246 7.22572 22.4676 10.7542 22.6447 14.718H28.057ZM15.6384 3.76926C15.6285 3.76944 15.5926 3.77226 15.5174 3.80643C15.4232 3.8493 15.2608 3.94557 15.0438 4.14959C14.5929 4.57341 14.045 5.332 13.5168 6.50591C12.6039 8.53458 11.932 11.3988 11.7689 14.718H19.5131C19.3501 11.3988 18.6782 8.53458 17.7653 6.50591C17.237 5.332 16.6892 4.57341 16.2383 4.14959C16.0212 3.94557 15.8589 3.8493 15.7646 3.80643C15.687 3.77112 15.6512 3.7693 15.6427 3.76926L15.6384 3.76926Z" fill="white"/>
</svg>
