<svg width="93" height="119" viewBox="0 0 93 119" fill="none" xmlns="http://www.w3.org/2000/svg">
	<path d="M76.0252 24.5387L75.9712 24.8214L76.1885 25.0101C80.3055 28.5853 83.8332 32.9664 86.5293 38.0734C98.2735 60.32 89.7546 87.9597 67.5419 99.6861C54.6782 106.477 40.0099 106.471 27.6485 100.939L31.1959 94.324C41.4178 98.7192 53.4673 98.6386 64.0419 93.0562C82.6024 83.2579 89.7219 60.1536 79.9102 41.5677C78.5157 38.9261 76.857 36.5205 74.9764 34.3581C72.6424 31.6654 69.9686 29.3581 67.0604 27.4575L70.8602 20.3719L70.8602 20.3718L80.1193 3.11604L76.0252 24.5387Z" fill="url(#paint0_linear_0_1)" stroke="url(#paint1_linear_0_1)" />
	<path d="M16.6059 94.3592L16.6599 94.0763L16.4424 93.8876C12.3295 90.3201 8.80182 85.9391 6.10574 80.832C-5.6385 58.5854 2.87645 30.9381 25.0967 19.2079C37.9602 12.417 52.6324 12.4304 64.9866 17.9663L61.4392 24.5813C51.2137 20.1786 39.1714 20.2553 28.5967 25.8378C10.0287 35.64 2.90909 58.7444 12.7248 77.3378C14.1192 79.9791 15.7779 82.3847 17.6546 84.5397C19.9885 87.2325 22.6624 89.5398 25.5706 91.4404L21.7709 98.526L21.7708 98.5261L12.5117 115.782L16.6059 94.3592Z" fill="url(#paint2_linear_0_1)" stroke="url(#paint3_linear_0_1)" />
	<path fill-rule="evenodd" clip-rule="evenodd" d="M46.2548 88.6768C62.3432 88.6768 75.3854 75.6346 75.3854 59.5463C75.3854 43.4579 62.3432 30.4157 46.2548 30.4157C30.1665 30.4157 17.1243 43.4579 17.1243 59.5463C17.1243 75.6346 30.1665 88.6768 46.2548 88.6768ZM37.3045 44.5526L31.6895 72.8264H47.1307C49.5639 72.8264 51.743 72.5032 53.6682 71.857C55.6201 71.2107 57.1575 70.2279 58.2805 68.9084C59.4302 67.589 60.0051 65.906 60.0051 63.8595C60.0051 61.813 59.2431 60.2243 57.719 59.0934C57.2808 58.7682 56.7984 58.4898 56.2719 58.2581C57.7359 57.621 58.9134 56.7415 59.8046 55.6197C60.7671 54.408 61.2484 52.927 61.2484 51.1767C61.2484 49.0495 60.4195 47.4204 58.7618 46.2894C57.104 45.1315 54.6842 44.5526 51.5024 44.5526H37.3045ZM47.5719 67.0504H40.6735L41.8153 61.3149H48.8152C49.7778 61.3149 50.5666 61.5034 51.1815 61.8804C51.7965 62.2573 52.104 62.8632 52.104 63.698C52.104 64.802 51.6896 65.6367 50.8607 66.2022C50.0585 66.7677 48.9623 67.0504 47.5719 67.0504ZM42.9169 55.7813L44.0024 50.3285H49.6174C50.6601 50.3285 51.4757 50.5035 52.0639 50.8536C52.6521 51.2037 52.9462 51.7691 52.9462 52.55C52.9462 53.2501 52.7858 53.8425 52.465 54.3272C52.1441 54.8119 51.6494 55.1754 50.981 55.4178C50.3393 55.6601 49.5505 55.7813 48.6147 55.7813H42.9169Z" fill="url(#paint4_linear_0_1)" />
	<defs>
		<linearGradient id="paint0_linear_0_1" x1="62.091" y1="14.2909" x2="71.1252" y2="106.19" gradientUnits="userSpaceOnUse">
			<stop stop-color="#76FF9C" />
			<stop offset="1" stop-color="#4BBF6B" />
		</linearGradient>
		<linearGradient id="paint1_linear_0_1" x1="100.493" y1="-51.3533" x2="52.2563" y2="104.191" gradientUnits="userSpaceOnUse">
			<stop stop-color="white" />
			<stop offset="1" stop-color="white" stop-opacity="0" />
		</linearGradient>
		<linearGradient id="paint2_linear_0_1" x1="38.0774" y1="15.9803" x2="47.1115" y2="107.879" gradientUnits="userSpaceOnUse">
			<stop stop-color="#76FF9C" />
			<stop offset="1" stop-color="#4BBF6B" />
		</linearGradient>
		<linearGradient id="paint3_linear_0_1" x1="-4.88543" y1="152.873" x2="56.1152" y2="18.9977" gradientUnits="userSpaceOnUse">
			<stop stop-color="white" />
			<stop offset="1" stop-color="white" stop-opacity="0" />
		</linearGradient>
		<linearGradient id="paint4_linear_0_1" x1="60.9513" y1="33.0401" x2="33.6578" y2="90.7763" gradientUnits="userSpaceOnUse">
			<stop stop-color="#76FF9C" />
			<stop offset="1" stop-color="#4BBF6B" />
		</linearGradient>
	</defs>
</svg>
