<svg width="177" height="177" viewBox="0 0 177 177" fill="none" xmlns="http://www.w3.org/2000/svg">
<path d="M174.346 109.342C162.587 156.508 114.815 185.213 67.6429 173.451C20.4905 161.692 -8.21415 113.917 3.54986 66.7543C15.3035 19.5825 63.0757 -9.12428 110.233 2.63456C157.402 14.3934 186.105 62.1737 174.345 109.342L174.346 109.342H174.346Z" fill="#F3BA2F"/>
<path fill-rule="evenodd" clip-rule="evenodd" d="M88.9567 55.8783L66.1583 78.6766L66.1588 78.6757L52.894 65.4104L88.9567 29.3478L125.031 65.4212L111.766 78.6865L88.9567 55.8783ZM43.5264 74.7759L30.2607 88.0434L43.5255 101.306L56.7912 88.0406L43.5264 74.7759ZM66.1581 97.4118L88.9564 120.209L111.765 97.401L125.037 110.659L125.031 110.666L88.9564 146.739L52.8938 110.677L52.875 110.658L66.1581 97.4118ZM134.387 74.7834L121.121 88.0491L134.387 101.314L147.652 88.0482L134.387 74.7834Z" fill="white"/>
<path d="M102.41 88.0364H102.416L88.9564 74.5759L79.0077 84.5217L77.8648 85.6651L75.5076 88.0228L75.4888 88.0411L75.5076 88.0604L88.9564 101.511L102.417 88.0505L102.424 88.043L102.411 88.0364" fill="white"/>
</svg>
