<svg width="177" height="177" viewBox="0 0 177 177" fill="none" xmlns="http://www.w3.org/2000/svg">
<path d="M88.9566 176.141C137.748 176.141 177 136.889 177 88.0978C177 39.3068 137.748 0.0543499 88.9566 0.0543499C40.1655 0.0543499 0.913086 39.3068 0.913086 88.0978C0.913086 136.889 40.1655 176.141 88.9566 176.141Z" fill="#2775CA"/>
<path d="M113.169 102.038C113.169 89.1984 105.465 84.7962 90.0571 82.9623C79.0517 81.4946 76.8506 78.5601 76.8506 73.4236C76.8506 68.2872 80.5194 64.9864 87.856 64.9864C94.4593 64.9864 98.1281 67.1875 99.962 72.6902C100.329 73.7908 101.43 74.5242 102.53 74.5242H108.399C109.867 74.5242 110.967 73.4236 110.967 71.9568V71.5897C109.5 63.5187 102.897 57.2826 94.4593 56.5492V47.7449C94.4593 46.2772 93.3588 45.1766 91.5248 44.8095H86.0221C84.5544 44.8095 83.4539 45.91 83.0867 47.7449V56.1821C72.0813 57.6498 65.1118 64.9864 65.1118 74.1579C65.1118 86.2639 72.4484 91.0323 87.856 92.8671C98.1281 94.7011 101.43 96.9022 101.43 102.772C101.43 108.642 96.2933 112.677 89.3237 112.677C79.7851 112.677 76.4835 108.641 75.3829 103.138C75.0167 101.671 73.9161 100.937 72.8156 100.937H66.5786C65.1118 100.937 64.0112 102.038 64.0112 103.505V103.873C65.478 113.043 71.3479 119.646 83.4539 121.481V130.286C83.4539 131.752 84.5544 132.853 86.3884 133.22H91.8911C93.3588 133.22 94.4593 132.12 94.8264 130.286V121.481C105.832 119.646 113.169 111.943 113.169 102.038Z" fill="white"/>
<path fill-rule="evenodd" clip-rule="evenodd" d="M37.5982 70.122C26.959 98.3699 41.6332 130.286 70.2474 140.557C71.3479 141.291 72.4484 142.758 72.4484 143.858V148.995C72.4484 149.728 72.4484 150.095 72.0813 150.462C71.715 151.929 70.2474 152.663 68.7797 151.929C48.2365 145.326 32.4617 129.551 25.8585 109.008C14.853 74.1579 33.9294 37.1057 68.7797 26.1003C69.1468 25.734 69.8802 25.734 70.2474 25.734C71.715 26.1003 72.4484 27.2008 72.4484 28.6685V33.8041C72.4484 35.6389 71.715 36.7394 70.2474 37.4728C55.2069 42.9755 43.1009 54.7144 37.5982 70.122ZM105.832 27.5679C106.198 26.1003 107.666 25.3669 109.133 26.1003C129.309 32.7035 145.451 48.4783 152.055 69.3886C163.06 104.239 143.984 141.291 109.133 152.296C108.766 152.663 108.033 152.663 107.666 152.663C106.198 152.296 105.465 151.196 105.465 149.728V144.593C105.465 142.758 106.198 141.657 107.666 140.924C122.706 135.421 134.812 123.682 140.315 108.275C150.954 80.0269 136.28 48.1111 107.666 37.84C106.565 37.1057 105.465 35.6389 105.465 34.1712V29.0356C105.465 28.3013 105.465 27.9351 105.832 27.5679Z" fill="white"/>
</svg>
