<svg width="177" height="177" viewBox="0 0 177 177" fill="none" xmlns="http://www.w3.org/2000/svg">
<path d="M174.346 110.255C162.587 157.421 114.815 186.126 67.6429 174.364C20.4905 162.605 -8.21415 114.83 3.54986 67.6674C15.3035 20.4956 63.0757 -8.21123 110.233 3.54762C157.402 15.3065 186.105 63.0868 174.345 110.256L174.346 110.255H174.346Z" fill="#50AF95"/>
<path fill-rule="evenodd" clip-rule="evenodd" d="M100.098 98.938C99.475 98.9847 96.2585 99.1767 89.0836 99.1767C83.3769 99.1767 79.3252 99.0055 77.9037 98.938C55.85 97.9679 39.3888 94.1288 39.3888 89.5324C39.3888 84.9359 55.85 81.102 77.9037 80.1163V95.1145C79.346 95.2183 83.4755 95.4621 89.1822 95.4621C96.0302 95.4621 99.4594 95.1768 100.077 95.1197V80.1267C122.084 81.1072 138.509 84.9463 138.509 89.5324C138.509 94.1185 122.089 97.9575 100.077 98.9328L100.098 98.938ZM100.097 78.5755V65.1545H130.81V44.6882H47.1913V65.1545H77.8984V78.5703C52.9395 79.7169 34.1697 84.6609 34.1697 90.5855C34.1697 96.5101 52.9395 101.449 77.8984 102.601V145.608H100.092V102.585C124.994 101.439 143.733 96.4997 143.733 90.5803C143.733 84.6609 125.01 79.7221 100.092 78.5703L100.097 78.5755Z" fill="white"/>
</svg>
